<?xml version="1.0" encoding="UTF-8" standalone="no"?>
<svg
   width="800"
   height="800"
   viewBox="0 0 128 128"
   aria-hidden="true"
   role="img"
   class="iconify iconify--noto"
   preserveAspectRatio="xMidYMid"
   version="1.1"
   id="svg12"
   sodipodi:docname="devil.svg"
   inkscape:version="1.3 (0e150ed, 2023-07-21)"
   xmlns:inkscape="http://www.inkscape.org/namespaces/inkscape"
   xmlns:sodipodi="http://sodipodi.sourceforge.net/DTD/sodipodi-0.dtd"
   xmlns="http://www.w3.org/2000/svg"
   xmlns:svg="http://www.w3.org/2000/svg">
  <defs
     id="defs12" />
  <sodipodi:namedview
     id="namedview12"
     pagecolor="#ffffff"
     bordercolor="#000000"
     borderopacity="0.25"
     inkscape:showpageshadow="2"
     inkscape:pageopacity="0.0"
     inkscape:pagecheckerboard="true"
     inkscape:deskcolor="#d1d1d1"
     inkscape:zoom="0.9025"
     inkscape:cx="400"
     inkscape:cy="399.44598"
     inkscape:window-width="1392"
     inkscape:window-height="948"
     inkscape:window-x="0"
     inkscape:window-y="25"
     inkscape:window-maximized="0"
     inkscape:current-layer="svg12" />
  <path
     d="m 8.88,7.38 c 9.23,9.39 21.36,17 32.89,16.67 1.1,-0.03 2.02,0.84 2.05,1.94 0.01,0.32 -0.06,0.63 -0.19,0.92 C 38.56,37.32 27.41,47.72 17.23,46.3 16.75,46.24 16.31,45.99 16,45.62 9.36,37.68 4.7,21.81 5.45,8.62 5.53,7.52 6.5,6.69 7.6,6.78 8.08,6.82 8.54,7.03 8.88,7.38 Z"
     fill="#792d85"
     id="path1" />
  <path
     d="M 119.07,7.63 C 109.84,17 97.71,24.6 86.18,24.3 c -1.1,-0.03 -2.02,0.84 -2.05,1.94 -0.01,0.32 0.06,0.63 0.19,0.92 5.07,10.41 16.22,20.81 26.4,19.39 0.47,-0.07 0.91,-0.31 1.21,-0.68 6.63,-7.94 11.29,-23.81 10.55,-37 a 1.99,1.99 0 0 0 -2.16,-1.82 c -0.47,0.04 -0.92,0.24 -1.25,0.58 z"
     fill="#792d85"
     id="path2" />
  <radialGradient
     id="IconifyId17ecdb2904d178eab20371"
     cx="63.599998"
     cy="2590.2251"
     r="51.530998"
     gradientTransform="translate(0,-2522)"
     gradientUnits="userSpaceOnUse">
    <stop
       offset="0"
       stop-color="#fc01fc"
       id="stop2" />
    <stop
       offset="0"
       stop-color="#f0f"
       id="stop3" />
    <stop
       offset=".86"
       stop-color="#df0be2"
       id="stop4" />
    <stop
       offset="1"
       stop-color="#8e2698"
       id="stop5" />
    <stop
       offset="1"
       stop-color="#792d85"
       id="stop6" />
  </radialGradient>
  <path
     d="m 63.6,118.8 c -25.24,0 -52.47,-15.83 -52.47,-50.57 0,-34.74 27.23,-50.58 52.47,-50.58 14,0 27,4.62 36.55,13 10.4,9.23 15.92,22.26 15.92,37.55 0,15.29 -5.52,28.22 -15.92,37.45 -9.59,8.45 -22.62,13.15 -36.55,13.15 z"
     fill="url(#IconifyId17ecdb2904d178eab20371)"
     id="path6" />
  <path
     d="m 107.22,38.33 a 51.202,51.202 0 0 1 7.32,27.29 c 0,15.26 -5.51,28.17 -15.89,37.38 -9.57,8.4 -22.57,13.09 -36.48,13.09 -16.3,0 -33.43,-6.63 -43.49,-20.71 9.71,16 28,23.42 45.3,23.42 13.9,0 26.9,-4.69 36.47,-13.09 10.39,-9.21 15.89,-22.12 15.89,-37.38 0,-11.5 -3.13,-21.72 -9.12,-30 z"
     fill="#792d85"
     id="path7" />
  <g
     id="g12">
    <path
       d="m 81.27,87.54 c 1.21,-0.02 2.32,0.64 2.9,1.7 0.7,1.5 0.52,3.26 -0.47,4.58 -2.22,3.37 -9.52,8.72 -19.7,8.72 -10.18,0 -17.48,-5.35 -19.69,-8.72 a 4.46,4.46 0 0 1 -0.47,-4.57 3.226,3.226 0 0 1 2.9,-1.71 c 0.41,0 0.82,0.06 1.21,0.19 5.2,1.57 10.61,2.35 16.05,2.32 5.42,0.03 10.81,-0.75 16,-2.32 0.39,-0.13 0.8,-0.19 1.21,-0.19 z"
       fill="#422b0d"
       id="path8" />
    <g
       fill="#422b0d"
       id="g10">
      <path
         d="M 58.14,68.82 C 55.9,66 46.67,60.58 43.34,59 42.1,58.43 40.81,57.97 39.49,57.63 c -0.24,-0.07 -0.5,-0.1 -0.75,-0.1 a 2.87,2.87 0 0 0 -2.74,2.29 2.92,2.92 0 0 0 1.67,3.32 c 1.57,0.77 4.31,2.23 7.15,3.84 A 7.83,7.83 0 0 0 41,73.71 v 1.46 c 0,4.14 3.36,7.5 7.5,7.5 4.14,0 7.5,-3.36 7.5,-7.5 v -1.46 -0.17 c 1.07,-0.07 2.03,-0.71 2.5,-1.67 0.49,-1 0.35,-2.19 -0.36,-3.05 z"
         id="path9" />
      <path
         d="m 93.52,59.82 a 2.867,2.867 0 0 0 -2.79,-2.27 c -0.25,0 -0.51,0.03 -0.75,0.1 -1.32,0.33 -2.61,0.79 -3.85,1.35 -3.33,1.56 -12.56,7 -14.8,9.8 A 2.84,2.84 0 0 0 71,71.87 c 0.48,0.97 1.43,1.6 2.51,1.67 v 1.63 c 0,4.14 3.36,7.5 7.5,7.5 4.14,0 7.5,-3.36 7.5,-7.5 v -1.46 c 0,-2.75 -1.45,-5.3 -3.81,-6.71 2.84,-1.61 5.58,-3.07 7.15,-3.84 1.29,-0.56 2,-1.97 1.67,-3.34 z"
         id="path10" />
    </g>
    <path
       d="m 48.12,68.45 a 2.874,2.874 0 0 0 -3.82,1.34 c -0.53,1.11 -0.29,2.44 0.6,3.3 1.42,0.68 3.13,0.08 3.82,-1.34 0.53,-1.11 0.29,-2.44 -0.6,-3.3 z"
       fill="#896024"
       id="path11" />
    <path
       d="m 80.63,68.45 a 2.874,2.874 0 0 0 -3.82,1.34 c -0.53,1.11 -0.29,2.44 0.6,3.3 1.42,0.68 3.13,0.08 3.82,-1.34 0.53,-1.11 0.29,-2.44 -0.6,-3.3 z"
       fill="#896024"
       id="path12" />
  </g>
</svg>
